<?xml version="1.0" encoding="UTF-8" standalone="no"?>
<!-- Created with Inkscape (http://www.inkscape.org/) -->

<svg
   width="100"
   height="127"
   viewBox="0 0 100 127"
   version="1.1"
   id="svg1"
   xmlns="http://www.w3.org/2000/svg"
   xmlns:svg="http://www.w3.org/2000/svg">
  <defs
     id="defs1" />
  <g
     id="layer1">
    <path
       style="opacity:1;fill:#ff659c;fill-opacity:1"
       d="m 84.568838,38.155199 -11.702276,5.9375 8.52038,5.9375 z"
       id="path1" />
    <path
       id="path44"
       style="opacity:1;fill:#1db0ff;fill-opacity:1;stroke-width:4.72441;stroke-linecap:square;stroke-linejoin:bevel"
       d="m 28.322266,40.089844 -16.50586,4.001953 14.359375,4.003906 z" />
    <path
       id="path46"
       style="opacity:1;fill:#1db0ff;fill-opacity:1;stroke-width:4.72441;stroke-linecap:square;stroke-linejoin:bevel"
       d="m 43.633955,36.376476 -15.3125,3.712891 -2.14649,8.005858 13.32227,3.712891 z" />
    <path
       id="path48"
       style="opacity:1;fill:#1db0ff;fill-opacity:1;stroke-width:4.72441;stroke-linecap:square;stroke-linejoin:bevel"
       d="m 13.882812,36.376953 -2.066406,7.714844 16.503906,-4.001953 h 0.002 l 15.3125,-3.712891 h -14.31836 z" />
    <path
       id="path50"
       style="opacity:1;fill:#1db0ff;fill-opacity:1;stroke-width:4.72441;stroke-linecap:square;stroke-linejoin:bevel"
       d="M 11.816406,44.091797 9.7480469,51.808594 H 25.181641 39.498047 L 26.175781,48.095703 Z" />
    <path
       style="opacity:1;fill:#1db0ff;fill-opacity:1;stroke-width:4.72441;stroke-linecap:square;stroke-linejoin:bevel"
       d="M 53.953654,31.140469 68.111858,27.34679 56.759622,20.668453 Z"
       id="path52" />
    <path
       style="opacity:1;fill:#1db0ff;fill-opacity:1;stroke-width:4.72441;stroke-linecap:square;stroke-linejoin:bevel"
       d="m 62.221822,49.328707 -15.209248,7.716222 -2.805968,10.472016 11.074136,7.716222 z"
       id="path55" />
    <path
       style="opacity:1;fill:#1db0ff;fill-opacity:1;stroke-width:4.72441;stroke-linecap:square;stroke-linejoin:bevel"
       d="m 43.633955,36.376476 11.074136,7.716223 -15.210856,7.715417 z"
       id="path56" />
    <path
       style="opacity:1;fill:#1db0ff;fill-opacity:1;stroke-width:4.72441;stroke-linecap:square;stroke-linejoin:bevel"
       d="m 39.498844,51.808921 15.209247,-7.716222 -7.695517,12.95223 z"
       id="path57" />
    <path
       style="opacity:1;fill:#1db0ff;fill-opacity:1;stroke-width:4.72441;stroke-linecap:square;stroke-linejoin:bevel"
       d="M 53.953654,31.140469 65.027789,38.856691 68.111858,27.34679 Z"
       id="path58" />
    <path
       style="opacity:1;fill:#1db0ff;fill-opacity:1;stroke-width:4.72441;stroke-linecap:square;stroke-linejoin:bevel"
       d="M 54.708091,44.092699 65.027789,38.856691 53.953654,31.140469 43.633955,36.376476 Z"
       id="path59" />
    <path
       style="opacity:1;fill:#1db0ff;fill-opacity:1;stroke-width:4.72441;stroke-linecap:square;stroke-linejoin:bevel"
       d="m 54.708091,44.092699 7.513731,5.236008 -15.209248,7.716222 z"
       id="path60" />
    <path
       style="opacity:1;fill:#1db0ff;fill-opacity:1;stroke-width:4.72441;stroke-linecap:square;stroke-linejoin:bevel"
       d="M 53.381003,0 71.968866,12.95223 68.111858,27.34679 56.759622,20.668453 49.245892,15.432445 Z"
       id="path62" />
    <path
       style="opacity:1;fill:#1db0ff;fill-opacity:1;stroke-width:4.72441;stroke-linecap:square;stroke-linejoin:bevel"
       d="M 34.927822,15.432445 53.381003,0 49.245892,15.432445 Z"
       id="path63" />
    <path
       style="opacity:1;fill:#1db0ff;fill-opacity:1;stroke-width:4.72441;stroke-linecap:square;stroke-linejoin:bevel"
       d="M 34.927822,15.432445 13.882812,36.376953 H 29.316406 Z"
       id="path64" />
    <path
       style="opacity:1;fill:#1db0ff;fill-opacity:1;stroke-width:4.72441;stroke-linecap:square;stroke-linejoin:bevel"
       d="M 23.630488,0 34.927822,15.432445 V 0 Z"
       id="path66" />
    <path
       style="opacity:1;fill:#1db0ff;fill-opacity:1;stroke-width:4.72441;stroke-linecap:square;stroke-linejoin:bevel"
       d="M 13.882812,36.376953 34.927822,15.432445 H 19.495377 Z"
       id="path68" />
    <path
       style="opacity:1;fill:#1db0ff;fill-opacity:1;stroke-width:4.72441;stroke-linecap:square;stroke-linejoin:bevel"
       d="M 34.927822,15.432445 V 0 h 18.453181 z"
       id="path81" />
    <path
       style="opacity:1;fill:#1db0ff;fill-opacity:1;stroke-width:4.72441;stroke-linecap:square;stroke-linejoin:bevel"
       d="m 23.630488,0 11.297334,15.432445 -15.435291,0.01062 z"
       id="path82" />
    <path
       style="opacity:1;fill:#1db0ff;fill-opacity:1;stroke-width:4.72441;stroke-linecap:square;stroke-linejoin:bevel"
       d="M 19.568837,72.752953 H 4.1363926 L 22.393171,62.212397 Z"
       id="path83" />
    <path
       style="opacity:1;fill:#1db0ff;fill-opacity:1;stroke-width:4.72441;stroke-linecap:square;stroke-linejoin:bevel"
       d="M 22.374805,62.280937 25.180774,51.808921 9.7484168,51.808594 4.1363926,72.752953 Z"
       id="path97" />
    <path
       style="opacity:1;fill:#1db0ff;fill-opacity:1;stroke-width:4.72441;stroke-linecap:square;stroke-linejoin:bevel"
       d="M 33.886907,72.752953 55.280742,75.233167 44.206606,67.516945 Z"
       id="path98" />
    <path
       style="opacity:1;fill:#1db0ff;fill-opacity:1;stroke-width:4.72441;stroke-linecap:square;stroke-linejoin:bevel"
       d="M 4.1363926,72.752953 H 19.568837 L 15.433726,88.185398 H 0.00128137 Z"
       id="path99" />
    <path
       style="opacity:1;fill:#1db0ff;fill-opacity:1;stroke-width:4.72441;stroke-linecap:square;stroke-linejoin:bevel"
       d="m 29.751796,88.185398 4.135111,-15.432445 21.393835,2.480214 z"
       id="path100" />
    <path
       style="opacity:1;fill:#1db0ff;fill-opacity:1;stroke-width:4.72441;stroke-linecap:square;stroke-linejoin:bevel"
       d="M 15.433726,88.185398 33.886907,72.752953 h -14.31807 z"
       id="path101" />
    <path
       style="opacity:1;fill:#1db0ff;fill-opacity:1;stroke-width:4.72441;stroke-linecap:square;stroke-linejoin:bevel"
       d="M 29.751796,88.185398 33.886907,72.752953 15.433726,88.185398 Z"
       id="path102" />
    <path
       style="opacity:1;fill:#ff659c;fill-opacity:1;stroke-width:4.72441;stroke-linecap:square;stroke-linejoin:bevel"
       d="m 46.450711,102.2498 -8.657663,-6.10236 -9.184776,15.09657 z"
       id="path103" />
    <path
       style="opacity:1;fill:#ff659c;fill-opacity:1;stroke-width:4.72441;stroke-linecap:square;stroke-linejoin:bevel"
       d="m 50.467616,126.34059 4.819525,-17.98671 12.107602,-6.10408 13.022449,8.99421 z"
       id="path104" />
    <path
       style="opacity:1;fill:#ff659c;fill-opacity:1;stroke-width:4.72441;stroke-linecap:square;stroke-linejoin:bevel"
       d="m 37.793048,96.14744 h 10.292785 l -1.635122,6.10236 z"
       id="path105" />
    <path
       style="opacity:1;fill:#ff659c;fill-opacity:1;stroke-width:4.72441;stroke-linecap:square;stroke-linejoin:bevel"
       d="m 28.608272,111.24401 9.184776,-15.09657 h -5.13966 z"
       id="path106" />
    <path
       style="opacity:1;fill:#ff659c;fill-opacity:1;stroke-width:4.72441;stroke-linecap:square;stroke-linejoin:bevel"
       d="m 46.450711,102.2498 6.426667,15.09744 2.409763,-8.99336 z"
       id="path108" />
    <path
       style="opacity:1;fill:#ff659c;fill-opacity:1;stroke-width:4.72441;stroke-linecap:square;stroke-linejoin:bevel"
       d="m 28.608275,111.24401 8.921216,-4.49711 6.426667,15.09745 z"
       id="path109" />
    <path
       style="opacity:1;fill:#ff659c;fill-opacity:1;stroke-width:4.72441;stroke-linecap:square;stroke-linejoin:bevel"
       d="m 67.394743,102.2498 17.067566,-6.10236 -4.045117,15.09657 z"
       id="path110" />
    <path
       style="opacity:1;fill:#ff659c;fill-opacity:1;stroke-width:1.52625"
       d="m 99.247573,40.968073 -17.860631,9.062126 13.004254,9.062125 z"
       id="path111" />
    <path
       style="opacity:1;fill:#ff659c;fill-opacity:1;stroke-width:4.72441;stroke-linecap:square;stroke-linejoin:bevel"
       d="m 46.450711,102.2498 v 0 L 43.95572,121.84332 37.529493,106.7469 Z"
       id="path112" />
    <path
       style="opacity:1;fill:#ff659c;fill-opacity:1;stroke-width:4.72441;stroke-linecap:square;stroke-linejoin:bevel"
       d="m 50.467616,126.34059 2.409761,-8.99335 -6.426666,-15.09744 -2.494991,19.59352 z"
       id="path113" />
    <path
       style="opacity:1;fill:#ff659c;fill-opacity:1;stroke-width:4.72441;stroke-linecap:square;stroke-linejoin:bevel"
       d="M 81.386942,50.030199 99.247573,40.968073 84.568838,38.155199 Z"
       id="path116" />
    <path
       style="opacity:1;fill:#ff659c;fill-opacity:1;stroke-width:4.72441;stroke-linecap:square;stroke-linejoin:bevel"
       d="M 100,38.155199 99.247573,40.968073 84.568838,38.155199 Z"
       id="path117" />
    <path
       style="opacity:1;fill:#ff659c;fill-opacity:1;stroke-width:4.72441;stroke-linecap:square;stroke-linejoin:bevel"
       d="M 82.924626,73.088819 81.386942,50.030199 74.390843,76.14 Z"
       id="path119" />
    <path
       style="opacity:1;fill:#ff659c;fill-opacity:1;stroke-width:4.72441;stroke-linecap:square;stroke-linejoin:bevel"
       d="M 67.394743,102.2498 82.924626,73.088819 74.390843,76.14 Z"
       id="path120" />
    <path
       style="opacity:1;fill:#ff659c;fill-opacity:1;stroke-width:4.72441;stroke-linecap:square;stroke-linejoin:bevel"
       d="M 94.391195,59.092324 82.924626,73.088819 81.386942,50.030199 Z"
       id="path121" />
    <path
       style="opacity:1;fill:#ff659c;fill-opacity:1;stroke-width:4.72441;stroke-linecap:square;stroke-linejoin:bevel"
       d="M 94.391195,59.092324 82.924626,73.088819 h 7.716221 z"
       id="path122" />
    <path
       style="opacity:1;fill:#ff659c;fill-opacity:1;stroke-width:4.72441;stroke-linecap:square;stroke-linejoin:bevel"
       d="M 82.924626,73.088819 84.462309,96.14744 90.640847,73.088819 Z"
       id="path123" />
    <path
       style="opacity:1;fill:#ff659c;fill-opacity:1;stroke-width:4.72441;stroke-linecap:square;stroke-linejoin:bevel"
       d="M 67.394743,102.2498 84.462309,96.14744 75.159684,87.669309 Z"
       id="path124" />
    <path
       style="opacity:1;fill:#ff659c;fill-opacity:1;stroke-width:4.72441;stroke-linecap:square;stroke-linejoin:bevel"
       d="M 82.924626,73.088819 84.462309,96.14744 75.159685,87.669309 Z"
       id="path125" />
    <path
       style="opacity:1;fill:#ffffff;fill-opacity:1;stroke-width:0.296592"
       d="m 65.027789,45.853712 3.470798,-1.761013 -2.527074,-1.761013 z"
       id="path126" />
  </g>
</svg>
