<?xml version="1.0" encoding="UTF-8" standalone="no"?>
<!-- Created with Inkscape (http://www.inkscape.org/) -->

<svg
   width="100"
   height="127"
   viewBox="0 0 100 127"
   version="1.1"
   id="svg1"
   role="img"
   xmlns="http://www.w3.org/2000/svg"
   xmlns:svg="http://www.w3.org/2000/svg">
  <defs
     id="defs1" />
  <g
     id="layer1">
    <path
       id="path54"
       style="opacity:0.5;fill:#000000;fill-opacity:1;stroke-width:0.204949"
       d="M 23.630488,0 0.00128137,88.185398 H 15.433726 29.751796 L 55.280742,75.233167 62.221822,49.328707 54.708091,44.092699 65.027789,38.856691 71.968869,12.95223 53.381003,0 h -14.31807 z m 11.297334,15.432445 h 14.31807 l 7.51373,5.236008 -2.805968,10.472016 -10.319699,5.236007 h -14.31807 z m -9.747048,36.376476 h 14.31807 l 7.51373,5.236008 -2.805968,10.472016 -10.319699,5.236008 h -14.31807 z" />
    <path
       id="path61"
       style="opacity:0.5;fill:#000000;fill-opacity:1;stroke-width:0.177474"
       d="m 84.568838,38.155199 -15.538972,57.992241 -1.635123,6.10236 -12.107602,6.10408 -8.83643,-6.10408 1.635122,-6.10236 H 32.653388 l -4.045116,15.09657 21.859344,15.09658 29.949576,-15.09658 4.045117,-15.09657 15.538971,-57.992241 z" />
    <path
       style="opacity:0.1;fill:#000000;fill-opacity:1"
       d="m 84.568838,38.155199 -11.702276,5.9375 8.52038,5.9375 z"
       id="path1" />
  </g>
</svg>
